<svg width="390" height="72" viewBox="0 0 390 72" fill="none" xmlns="http://www.w3.org/2000/svg">
<g clip-path="url(#clip0_756_8)">
<rect width="390" height="72" fill="#0A0A0A"/>
<path d="M195 -504L195 576" stroke="#1F1F1F" stroke-width="2"/>
<path d="M360 0L360 1080" stroke="#1F1F1F" stroke-width="2"/>
<path d="M160 0L160 1080" stroke="#1F1F1F" stroke-width="2"/>
<g opacity="0.4" filter="url(#filter0_f_756_8)">
<circle cx="503" cy="408" r="360" fill="#7E49FF"/>
</g>
<g opacity="0.4" filter="url(#filter1_f_756_8)">
<circle cx="-247" cy="42" r="360" fill="#7E49FF"/>
</g>
<g opacity="0.4" filter="url(#filter2_f_756_8)">
<circle cx="444" cy="-144" r="360" fill="#1EA7FF"/>
</g>
<g filter="url(#filter3_d_756_8)">
<path d="M47.7226 21.4605C48.2613 21.3127 48.8903 21.1822 49.44 21.0559L52.359 20.3827L61.4645 18.2805L66.4979 17.116C67.4376 16.8987 68.8522 16.5181 69.7737 16.4713C71.1682 16.3979 72.5552 16.7191 73.7756 17.398C75.4457 18.3343 76.668 19.9039 77.1669 21.7524C77.3227 22.3198 77.4558 22.9507 77.5884 23.5274L78.2591 26.4446L80.3185 35.3671L81.4731 40.3671C81.7261 41.4606 82.1275 42.9336 82.1716 44.026C82.22 45.3688 81.8883 46.6978 81.215 47.8604C80.3148 49.4281 78.6663 50.7328 76.9155 51.2048C76.4448 51.3444 75.8203 51.4706 75.3348 51.5827L72.5437 52.2258L64.0396 54.1871L58.4588 55.4758L56.8166 55.8565C56.1471 56.0113 55.6347 56.1472 54.9444 56.1867C53.5294 56.2674 52.2327 56.01 50.9828 55.3436C49.2822 54.4367 48.0386 52.8763 47.4951 51.0362C47.3435 50.5228 47.2223 49.9301 47.1007 49.4008L46.4791 46.7096L44.4993 38.1375L43.1568 32.3126L42.7716 30.6366C42.6361 30.045 42.4909 29.4362 42.4576 28.8291C42.3761 27.5056 42.667 26.1858 43.2975 25.0193C44.2399 23.2612 45.8232 22.0349 47.7226 21.4605Z" fill="url(#paint0_linear_756_8)"/>
<path d="M66.1599 15.6549C66.9718 15.4671 68.5975 15.0307 69.6941 14.9743C71.2655 14.8916 72.8296 15.2247 74.2275 15.9392L74.5053 16.0875L74.5088 16.0897C76.5309 17.2233 78.0115 19.1237 78.6154 21.3616L78.6145 21.3618C78.7806 21.968 78.9267 22.6557 79.05 23.1916L79.7214 26.1085L81.7801 35.0303L82.9341 40.0287C83.1588 40.9999 83.6192 42.6888 83.6707 43.9659L83.671 43.9718C83.7296 45.5949 83.3278 47.2008 82.515 48.6065L82.5162 48.6072C81.4313 50.4965 79.4771 52.0552 77.3411 52.6424C77.3352 52.6441 77.3292 52.6457 77.3232 52.6475C77.3174 52.6491 77.3114 52.652 77.3056 52.6536L77.3044 52.6528C77.0477 52.7275 76.7501 52.8012 76.4648 52.8667L75.672 53.0447L72.8807 53.6871L64.3765 55.6485L58.7967 56.9367L57.1557 57.3176L57.1548 57.3178C56.5315 57.4619 55.877 57.6355 55.0303 57.684L55.0294 57.6842C53.3615 57.7792 51.7883 57.4729 50.2775 56.6675C48.2117 55.5658 46.7108 53.6754 46.0567 51.461C45.8879 50.8895 45.7482 50.2136 45.639 49.7384L45.0177 47.0475L43.0377 38.4753L43.0375 38.4744L41.6947 32.6496L41.6945 32.6487L41.3096 30.9726L41.3093 30.9716C41.1824 30.417 41.0017 29.6726 40.96 28.9115C40.8632 27.3115 41.2152 25.716 41.9774 24.3058C43.1216 22.174 45.0386 20.7052 47.2882 20.0248L47.3258 20.0141C47.9046 19.8554 48.6019 19.709 49.1039 19.5936L49.1032 19.5948L61.1268 16.8189L66.1599 15.6549Z" stroke="url(#paint1_radial_756_8)" stroke-width="3"/>
</g>
<path d="M59.9315 26.5706C59.9835 26.5542 60.0363 26.5394 60.0893 26.5263C60.6669 26.3837 61.0629 26.6514 61.5978 26.8308C62.6598 27.1868 63.7043 27.6033 64.7575 27.9871L68.2781 29.2747C69.8935 29.8678 71.1757 30.0884 71.6363 32.0667C72.1956 34.4709 72.741 36.8828 73.293 39.2893L73.7965 41.4867C73.8737 41.8241 74.0332 42.3377 74.0419 42.6662C74.0738 43.8574 73.2554 44.1247 72.4021 44.3135C72.1219 44.3753 71.8425 44.4393 71.5633 44.5053L71.1246 44.6114C70.5928 42.2451 70.0496 39.8814 69.4946 37.5205L68.9364 35.1057C68.8722 34.8254 68.5554 33.2418 68.3352 33.1211C67.8146 32.8362 66.989 32.5697 66.4189 32.3612L60.1045 30.0509C59.6286 29.8702 59.1514 29.6935 58.6728 29.5207C58.3095 29.3904 57.7885 29.2341 57.4651 29.041C57.5341 28.9365 57.6514 28.8151 57.738 28.7215C58.3383 28.0727 58.9371 27.4152 59.5669 26.7972C59.6746 26.6915 59.7934 26.626 59.9315 26.5706Z" fill="#FAFAFA"/>
<path d="M55.6454 30.9476C55.7998 30.9513 56.9353 31.3969 57.1648 31.4826L63.6252 33.8575L65.462 34.5298C65.657 34.6018 66.134 34.7649 66.2922 34.8571C66.6321 35.0551 66.7972 36.135 66.8809 36.4954L67.3495 38.5176L68.8785 45.1392C67.8711 45.3596 66.8658 45.5898 65.8625 45.8291L65.6816 45.868L64.422 40.3908L64.0601 38.8134C63.9919 38.5169 63.898 38.053 63.788 37.7825C63.5787 37.575 63.017 37.4141 62.7325 37.3115L61.0784 36.7187L55.4711 34.6758L53.9356 34.1136C53.7469 34.0439 53.201 33.8936 53.1116 33.7267C53.1586 33.382 54.6037 32.0871 54.8809 31.7225C54.9766 31.5967 55.5089 31.0528 55.6454 30.9476Z" fill="#FAFAFA"/>
<path d="M51.952 35.9586C52.4033 36.047 52.92 36.2687 53.3637 36.4306L55.4907 37.1983L59.697 38.7365C60.3879 38.9892 61.1895 39.2581 61.8629 39.5301C62.0031 39.9548 62.1595 40.7093 62.2652 41.1593L62.9655 44.1598L63.2902 45.5477C63.3317 45.7193 63.462 46.2064 63.4732 46.3639L63.4392 46.3939C62.3797 46.6211 61.3239 46.8648 60.2722 47.1253L59.5744 44.0979C59.4816 43.695 59.2848 42.7423 59.139 42.3919C58.7792 42.0918 53.6435 40.3242 52.8615 40.0132C52.5591 38.6874 52.2196 37.2791 51.952 35.9586Z" fill="#FAFAFA"/>
<path d="M53.5077 42.8283C53.7524 42.8857 54.5412 43.182 54.8198 43.2926C55.611 43.6065 56.4411 43.8687 57.2242 44.1706C57.5046 45.3192 57.7576 46.4885 58.0344 47.6419C57.505 47.7504 56.976 47.8765 56.4505 48.0044C55.9609 48.1288 55.556 48.1782 55.0978 47.8832C54.5694 47.5429 54.4777 47.0218 54.3458 46.442C54.2735 46.124 54.1987 45.8016 54.1255 45.483L53.5077 42.8283Z" fill="#FAFAFA"/>
</g>
<defs>
<filter id="filter0_f_756_8" x="-357" y="-452" width="1720" height="1720" filterUnits="userSpaceOnUse" color-interpolation-filters="sRGB">
<feFlood flood-opacity="0" result="BackgroundImageFix"/>
<feBlend mode="normal" in="SourceGraphic" in2="BackgroundImageFix" result="shape"/>
<feGaussianBlur stdDeviation="250" result="effect1_foregroundBlur_756_8"/>
</filter>
<filter id="filter1_f_756_8" x="-1107" y="-818" width="1720" height="1720" filterUnits="userSpaceOnUse" color-interpolation-filters="sRGB">
<feFlood flood-opacity="0" result="BackgroundImageFix"/>
<feBlend mode="normal" in="SourceGraphic" in2="BackgroundImageFix" result="shape"/>
<feGaussianBlur stdDeviation="250" result="effect1_foregroundBlur_756_8"/>
</filter>
<filter id="filter2_f_756_8" x="-416" y="-1004" width="1720" height="1720" filterUnits="userSpaceOnUse" color-interpolation-filters="sRGB">
<feFlood flood-opacity="0" result="BackgroundImageFix"/>
<feBlend mode="normal" in="SourceGraphic" in2="BackgroundImageFix" result="shape"/>
<feGaussianBlur stdDeviation="250" result="effect1_foregroundBlur_756_8"/>
</filter>
<filter id="filter3_d_756_8" x="-206.556" y="-232.539" width="545.732" height="545.74" filterUnits="userSpaceOnUse" color-interpolation-filters="sRGB">
<feFlood flood-opacity="0" result="BackgroundImageFix"/>
<feColorMatrix in="SourceAlpha" type="matrix" values="0 0 0 0 0 0 0 0 0 0 0 0 0 0 0 0 0 0 127 0" result="hardAlpha"/>
<feOffset dx="4" dy="4"/>
<feGaussianBlur stdDeviation="125"/>
<feComposite in2="hardAlpha" operator="out"/>
<feColorMatrix type="matrix" values="0 0 0 0 0.168627 0 0 0 0 0.498039 0 0 0 0 1 0 0 0 0.34 0"/>
<feBlend mode="normal" in2="BackgroundImageFix" result="effect1_dropShadow_756_8"/>
<feBlend mode="normal" in="SourceGraphic" in2="effect1_dropShadow_756_8" result="shape"/>
</filter>
<linearGradient id="paint0_linear_756_8" x1="58.3128" y1="18.997" x2="66.3176" y2="53.6697" gradientUnits="userSpaceOnUse">
<stop stop-color="#2B7FFF"/>
<stop offset="1" stop-color="#8EC5FF"/>
</linearGradient>
<radialGradient id="paint1_radial_756_8" cx="0" cy="0" r="1" gradientUnits="userSpaceOnUse" gradientTransform="translate(62.2986 36.6664) rotate(36.8257) scale(22.3036 22.2732)">
<stop stop-color="#93C5FD"/>
<stop offset="1" stop-color="#93C5FD"/>
</radialGradient>
<clipPath id="clip0_756_8">
<rect width="390" height="72" fill="white"/>
</clipPath>
</defs>
</svg>
